<svg id="svg" version="1.1" xmlns="http://www.w3.org/2000/svg" xmlns:xlink="http://www.w3.org/1999/xlink" width="400" height="400.6139088729017" viewBox="0, 0, 400,432.6139088729017"><g id="svgg"><path id="path0" d="M196.178 123.137 C 193.859 123.475,192.496 123.903,190.422 124.942 C 188.150 126.082,125.070 163.306,123.804 164.254 C 121.432 166.033,118.075 170.317,118.635 170.853 C 118.717 170.933,122.094 172.858,126.139 175.132 C 130.184 177.406,136.072 180.858,139.224 182.802 L 144.955 186.338 146.144 184.499 C 146.798 183.487,147.888 182.245,148.567 181.739 C 149.245 181.233,149.872 180.740,149.960 180.644 C 150.557 179.989,193.950 154.719,195.212 154.290 C 197.783 153.417,201.543 153.533,203.776 154.555 C 204.787 155.017,205.668 155.396,205.734 155.396 C 206.042 155.396,249.689 180.172,250.613 180.872 C 251.192 181.310,252.216 182.364,252.888 183.215 L 254.111 184.761 259.350 181.254 C 262.231 179.326,267.970 175.720,272.102 173.241 C 276.235 170.761,279.736 168.627,279.881 168.498 C 280.219 168.199,276.549 164.259,274.838 163.083 C 272.257 161.310,207.288 124.781,205.585 124.145 C 203.897 123.515,199.848 122.741,198.660 122.821 C 198.342 122.842,197.225 122.985,196.178 123.137 " stroke="none" fill="#33c36c" fill-rule="evenodd"></path><path id="path1" d="M196.077 154.272 C 193.415 155.021,150.086 180.438,147.935 182.511 C 144.132 186.179,144.215 185.398,144.209 217.768 C 144.204 248.679,144.112 247.419,146.552 249.830 C 148.589 251.842,194.458 277.642,197.282 278.364 C 202.436 279.681,201.832 279.956,229.097 263.851 C 252.187 250.212,252.641 249.897,254.428 246.281 L 255.635 243.838 255.635 216.147 L 255.635 188.456 254.434 186.024 C 252.441 181.992,252.213 181.838,227.635 167.963 C 200.511 152.650,201.034 152.877,196.077 154.272 " stroke="none" fill="#d3f3fb" fill-rule="evenodd"></path><path id="path2" d="M191.687 62.853 C 186.616 63.923,186.225 64.131,158.114 80.685 C 154.245 82.964,149.928 85.502,148.521 86.326 C 147.114 87.150,142.726 89.735,138.769 92.072 C 134.812 94.408,128.265 98.268,124.221 100.648 C 120.176 103.029,113.054 107.234,108.393 109.992 C 103.733 112.751,97.762 116.276,95.124 117.825 C 90.151 120.746,84.569 124.064,77.698 128.185 C 72.126 131.526,64.501 139.769,65.790 141.057 C 65.922 141.190,77.825 147.906,92.241 155.984 L 118.453 170.670 119.309 169.188 C 120.234 167.587,122.122 165.515,123.807 164.253 C 125.071 163.305,188.153 126.080,190.422 124.942 C 195.096 122.599,200.671 122.305,205.583 124.143 C 207.298 124.785,272.269 161.318,274.857 163.096 C 275.580 163.593,277.091 164.992,278.214 166.205 L 280.256 168.410 306.234 152.893 L 332.212 137.375 331.684 136.553 C 328.079 130.950,327.507 130.575,291.127 109.917 C 278.455 102.722,233.224 77.153,226.379 73.315 C 224.181 72.082,219.914 69.689,216.898 67.995 C 207.507 62.724,199.773 61.147,191.687 62.853 M207.514 156.498 C 207.514 156.586,207.946 156.881,208.473 157.154 C 209.001 157.427,209.432 157.578,209.432 157.490 C 209.432 157.403,209.001 157.107,208.473 156.835 C 207.946 156.562,207.514 156.410,207.514 156.498 M187.930 158.137 C 186.734 158.785,186.807 159.055,188.010 158.433 C 188.537 158.160,188.969 157.869,188.969 157.786 C 188.969 157.580,188.934 157.591,187.930 158.137 M209.752 157.777 C 209.752 157.865,210.184 158.160,210.711 158.433 C 211.239 158.706,211.671 158.857,211.671 158.769 C 211.671 158.681,211.239 158.386,210.711 158.114 C 210.184 157.841,209.752 157.689,209.752 157.777 M211.990 159.056 C 211.990 159.144,212.422 159.439,212.950 159.712 C 213.477 159.985,213.909 160.136,213.909 160.048 C 213.909 159.960,213.477 159.665,212.950 159.392 C 212.422 159.120,211.990 158.968,211.990 159.056 M214.868 160.655 C 214.868 160.743,215.300 161.038,215.827 161.311 C 216.355 161.584,216.787 161.735,216.787 161.647 C 216.787 161.559,216.355 161.264,215.827 160.991 C 215.300 160.718,214.868 160.567,214.868 160.655 M180.895 162.293 C 179.700 162.942,179.773 163.212,180.975 162.590 C 181.503 162.317,181.934 162.026,181.934 161.942 C 181.934 161.736,181.900 161.748,180.895 162.293 M217.106 161.934 C 217.106 162.022,217.538 162.317,218.066 162.590 C 218.593 162.863,219.025 163.014,219.025 162.926 C 219.025 162.838,218.593 162.543,218.066 162.270 C 217.538 161.997,217.106 161.846,217.106 161.934 M222.222 164.812 C 222.222 164.900,222.654 165.195,223.181 165.468 C 223.709 165.740,224.141 165.892,224.141 165.804 C 224.141 165.716,223.709 165.421,223.181 165.148 C 222.654 164.875,222.222 164.724,222.222 164.812 M174.660 165.981 C 173.737 166.519,172.982 167.033,172.982 167.123 C 172.982 167.301,175.825 165.720,176.323 165.265 C 176.865 164.771,176.373 164.982,174.660 165.981 M224.460 166.091 C 224.460 166.179,224.892 166.474,225.420 166.747 C 225.947 167.019,226.379 167.171,226.379 167.083 C 226.379 166.995,225.947 166.700,225.420 166.427 C 224.892 166.154,224.460 166.003,224.460 166.091 M227.338 167.689 C 227.338 167.777,227.770 168.073,228.297 168.345 C 228.825 168.618,229.257 168.769,229.257 168.681 C 229.257 168.594,228.825 168.298,228.297 168.026 C 227.770 167.753,227.338 167.601,227.338 167.689 M229.576 168.968 C 229.576 169.056,230.008 169.351,230.536 169.624 C 231.063 169.897,231.495 170.048,231.495 169.960 C 231.495 169.873,231.063 169.577,230.536 169.305 C 230.008 169.032,229.576 168.880,229.576 168.968 M168.425 169.647 C 167.230 170.296,167.303 170.566,168.505 169.944 C 169.033 169.671,169.464 169.380,169.464 169.296 C 169.464 169.091,169.430 169.102,168.425 169.647 M231.815 170.247 C 231.815 170.335,232.246 170.630,232.774 170.903 C 233.301 171.176,233.733 171.327,233.733 171.239 C 233.733 171.152,233.301 170.856,232.774 170.584 C 232.246 170.311,231.815 170.159,231.815 170.247 M234.692 171.846 C 234.692 171.934,235.124 172.229,235.651 172.502 C 236.179 172.775,236.611 172.926,236.611 172.838 C 236.611 172.750,236.179 172.455,235.651 172.182 C 235.124 171.909,234.692 171.758,234.692 171.846 M162.190 173.335 C 161.267 173.873,160.512 174.387,160.512 174.477 C 160.512 174.655,163.355 173.074,163.853 172.619 C 164.395 172.125,163.903 172.337,162.190 173.335 M236.930 173.125 C 236.930 173.213,237.362 173.508,237.890 173.781 C 238.417 174.054,238.849 174.205,238.849 174.117 C 238.849 174.029,238.417 173.734,237.890 173.461 C 237.362 173.188,236.930 173.037,236.930 173.125 M239.169 174.404 C 239.169 174.492,239.600 174.787,240.128 175.060 C 240.655 175.333,241.087 175.484,241.087 175.396 C 241.087 175.308,240.655 175.013,240.128 174.740 C 239.600 174.467,239.169 174.316,239.169 174.404 M242.046 176.003 C 242.046 176.091,242.478 176.386,243.006 176.659 C 243.533 176.931,243.965 177.083,243.965 176.995 C 243.965 176.907,243.533 176.612,243.006 176.339 C 242.478 176.066,242.046 175.915,242.046 176.003 M155.955 177.001 C 154.760 177.650,154.833 177.920,156.035 177.298 C 156.563 177.025,156.994 176.734,156.994 176.650 C 156.994 176.445,156.960 176.456,155.955 177.001 M244.285 177.282 C 244.285 177.370,244.716 177.665,245.244 177.938 C 245.771 178.210,246.203 178.362,246.203 178.274 C 246.203 178.186,245.771 177.891,245.244 177.618 C 244.716 177.345,244.285 177.194,244.285 177.282 M246.523 178.561 C 246.523 178.649,246.954 178.944,247.482 179.217 C 248.010 179.489,248.441 179.641,248.441 179.553 C 248.441 179.465,248.010 179.170,247.482 178.897 C 246.954 178.624,246.523 178.473,246.523 178.561 M249.400 180.242 C 249.840 180.557,250.847 181.385,251.639 182.082 L 253.078 183.348 251.884 182.074 C 251.228 181.373,250.221 180.545,249.646 180.234 C 248.637 179.688,248.628 179.688,249.400 180.242 M147.542 182.654 L 146.603 183.693 147.642 182.754 C 148.611 181.879,148.828 181.615,148.581 181.615 C 148.526 181.615,148.058 182.082,147.542 182.654 " stroke="none" fill="#3cdb84" fill-rule="evenodd"></path><path id="path3" d="M306.635 152.702 C 292.654 161.062,281.006 168.024,280.752 168.172 C 280.366 168.397,280.461 168.784,281.320 170.475 C 283.569 174.906,283.418 171.966,283.539 213.749 C 283.679 261.600,283.806 260.491,277.442 266.691 C 275.897 268.197,233.911 293.373,211.213 306.404 C 207.988 308.256,205.161 309.294,202.318 309.670 L 200.799 309.871 200.799 340.068 L 200.799 370.264 202.857 370.264 C 203.988 370.264,205.906 370.055,207.119 369.800 C 210.947 368.995,212.257 368.410,219.664 364.198 C 223.906 361.786,224.683 361.340,227.498 359.703 C 229.081 358.782,231.671 357.276,233.253 356.356 C 234.836 355.435,241.815 351.332,248.761 347.239 C 255.707 343.145,263.118 338.787,265.228 337.554 C 267.338 336.321,269.568 334.996,270.184 334.608 C 270.799 334.221,272.670 333.110,274.341 332.140 C 279.012 329.426,298.205 318.103,303.757 314.786 C 306.483 313.157,312.406 309.635,316.920 306.958 C 329.268 299.635,332.878 295.726,336.264 286.011 L 337.490 282.494 337.490 215.667 L 337.490 148.841 336.400 145.726 C 335.314 142.625,332.889 137.763,332.342 137.591 C 332.184 137.542,320.616 144.341,306.635 152.702 M255.948 216.307 C 255.948 230.200,255.987 235.837,256.035 228.833 C 256.083 221.830,256.083 210.463,256.035 203.573 C 255.987 196.684,255.948 202.414,255.948 216.307 " stroke="none" fill="#4484f3" fill-rule="evenodd"></path><path id="path4" d="M64.481 143.468 C 62.320 149.228,62.510 141.918,62.510 219.345 L 62.510 289.209 63.367 291.554 C 65.569 297.583,68.244 300.388,75.971 304.774 C 78.971 306.477,89.759 312.607,99.945 318.396 C 123.367 331.710,173.035 359.771,181.455 364.447 C 189.634 368.989,193.409 370.255,198.801 370.261 L 200.799 370.264 200.799 340.089 L 200.799 309.915 198.801 309.700 C 193.868 309.171,197.127 310.853,155.715 287.463 C 119.344 266.919,119.691 267.138,117.969 263.629 C 116.347 260.326,116.362 260.793,116.468 217.064 C 116.575 173.215,116.517 174.871,118.064 171.769 L 118.533 170.830 92.341 156.158 C 77.936 148.089,65.958 141.443,65.723 141.390 C 65.454 141.329,64.995 142.098,64.481 143.468 M200.623 289.049 C 200.623 294.764,200.666 297.102,200.719 294.245 C 200.772 291.387,200.772 286.711,200.719 283.853 C 200.666 280.995,200.623 283.333,200.623 289.049 " stroke="none" fill="#042c44" fill-rule="evenodd"></path><path id="path5" d="M273.221 172.522 C 269.528 174.731,263.681 178.411,260.228 180.699 L 253.949 184.860 254.688 186.195 C 256.062 188.675,256.160 190.983,256.041 217.906 C 255.920 245.469,256.008 244.191,254.014 247.322 C 252.187 250.190,250.780 251.125,228.457 264.297 C 205.009 278.133,204.539 278.391,202.267 278.703 L 200.799 278.904 200.799 294.388 L 200.799 309.871 202.318 309.670 C 205.161 309.294,207.988 308.256,211.213 306.404 C 233.911 293.373,275.897 268.197,277.442 266.691 C 283.806 260.491,283.679 261.600,283.539 213.749 C 283.418 171.994,283.566 174.901,281.336 170.506 C 280.090 168.052,281.124 167.795,273.221 172.522 " stroke="none" fill="#3474b4" fill-rule="evenodd"></path><path id="path6" d="M117.953 171.910 C 116.507 175.564,116.575 173.502,116.468 217.064 C 116.362 260.793,116.347 260.326,117.969 263.629 C 119.691 267.138,119.344 266.919,155.715 287.463 C 197.165 310.875,193.859 309.170,198.853 309.706 L 200.904 309.927 200.693 301.966 C 200.576 297.587,200.481 290.588,200.480 286.411 L 200.480 278.817 199.251 278.817 C 196.834 278.817,194.754 277.752,171.367 264.545 C 147.336 250.973,145.935 250.082,144.809 247.642 C 144.015 245.921,143.867 190.006,144.651 187.784 L 145.098 186.518 138.816 182.659 C 132.987 179.079,120.096 171.682,118.857 171.206 C 118.460 171.054,118.218 171.243,117.953 171.910 " stroke="none" fill="#040c14" fill-rule="evenodd"></path></g></svg>